ffmpeg version 2.1.1 Copyright (c) 2000-2013 the FFmpeg developers
  built on Dec 20 2014 10:34:55 with gcc 4.7 (Debian 4.7.2-5)
  configuration: --enable-gpl --enable-nonfree --enable-postproc --enable-pthreads --enable-x11grab --enable-swscale --enable-version3 --enable-shared --disable-yasm --enable-filter=movie --enable-frei0r --enable-libdc1394 --enable-libfaac --enable-libmp3lame --enable-libx264 --enable-libxvid --enable-libfreetype --enable-libvorbis --enable-libgsm --enable-libopencore-amrnb --enable-libopencore-amrwb --enable-libopenjpeg --enable-librtmp --enable-libschroedinger --enable-libspeex --enable-libtheora --enable-libvpx --enable-libvo-amrwbenc --enable-libvo-aacenc --enable-libaacplus --enable-libxavs --enable-bzlib --enable-openssl --enable-gnutls --enable-openal --enable-libv4l2 --enable-libpulse --enable-libmodplug --enable-libass --enable-libcdio --enable-vdpau --enable-libbluray
  libavutil      52. 48.101 / 52. 48.101
  libavcodec     55. 39.101 / 55. 39.101
  libavformat    55. 19.104 / 55. 19.104
  libavdevice    55.  5.100 / 55.  5.100
  libavfilter     3. 90.100 /  3. 90.100
  libswscale      2.  5.101 /  2.  5.101
  libswresample   0. 17.104 /  0. 17.104
  libpostproc    52.  3.100 / 52.  3.100
Input #0, avi, from '/var/www/business-supermarket.com/web/www/temp/0994305001424636810.avi':
  Duration: 00:03:29.88, start: 0.000000, bitrate: 1320 kb/s
    Stream #0:0: Video: msmpeg4v3 (mp43 / 0x3334706D), yuv420p, 1024x576, 25 tbr, 25 tbn, 25 tbc
    Stream #0:1: Audio: mp3 (U[0][0][0] / 0x0055), 32000 Hz, stereo, s16p, 128 kb/s
Please use -b:a or -b:v, -b is ambiguous
Output #0, flv, to '/var/www/business-supermarket.com/web/www/upload/users/jag_1/videos/0994305001424636810.flv':
  Metadata:
    encoder         : Lavf55.19.104
    Stream #0:0: Video: flv1 (flv) ([2][0][0][0] / 0x0002), yuv420p, 512x384, q=2-31, 1000 kb/s, 1k tbn, 30 tbc
    Stream #0:1: Audio: mp3 (libmp3lame) ([2][0][0][0] / 0x0002), 44100 Hz, stereo, s16p, 128 kb/s
Stream mapping:
  Stream #0:0 -> #0:0 (msmpeg4 -> flv)
  Stream #0:1 -> #0:1 (mp3 -> libmp3lame)
Press [q] to stop, [?] for help
frame=   39 fps=0.0 q=2.0 size=     176kB time=00:00:01.56 bitrate= 920.1kbits/s    frame=   88 fps= 87 q=2.0 size=     328kB time=00:00:03.55 bitrate= 756.3kbits/s    frame=  138 fps= 91 q=2.0 size=     477kB time=00:00:05.53 bitrate= 705.8kbits/s    frame=  191 fps= 95 q=2.0 size=     630kB time=00:00:07.70 bitrate= 669.9kbits/s    frame=  241 fps= 96 q=1.6 size=     871kB time=00:00:09.66 bitrate= 738.1kbits/s    frame=  294 fps= 97 q=2.0 size=    1060kB time=00:00:11.83 bitrate= 733.4kbits/s    frame=  340 fps= 96 q=2.0 size=    1419kB time=00:00:13.63 bitrate= 852.2kbits/s    frame=  386 fps= 96 q=2.0 size=    1878kB time=00:00:15.46 bitrate= 994.5kbits/s    frame=  432 fps= 95 q=2.0 size=    2318kB time=00:00:17.34 bitrate=1094.9kbits/s    frame=  477 fps= 94 q=2.0 size=    2701kB time=00:00:19.07 bitrate=1160.2kbits/s    frame=  522 fps= 94 q=2.0 size=    3068kB time=00:00:20.95 bitrate=1199.8kbits/s    frame=  568 fps= 94 q=4.0 size=    3413kB time=00:00:22.75 bitrate=1228.8kbits/s    frame=  611 fps= 93 q=4.9 size=    3651kB time=00:00:24.50 bitrate=1220.5kbits/s    frame=  655 fps= 93 q=3.7 size=    3876kB time=00:00:26.22 bitrate=1210.6kbits/s    frame=  695 fps= 92 q=3.6 size=    4081kB time=00:00:27.84 bitrate=1200.4kbits/s    frame=  740 fps= 92 q=3.0 size=    4349kB time=00:00:29.65 bitrate=1201.5kbits/s    frame=  781 fps= 91 q=2.5 size=    4605kB time=00:00:31.27 bitrate=1206.5kbits/s    frame=  827 fps= 91 q=4.3 size=    4835kB time=00:00:33.15 bitrate=1194.7kbits/s    frame=  872 fps= 91 q=4.5 size=    5070kB time=00:00:34.95 bitrate=1188.2kbits/s    frame=  892 fps= 81 q=4.2 size=    5182kB time=00:00:35.71 bitrate=1188.8kbits/s    frame=  940 fps= 82 q=3.9 size=    5447kB time=00:00:37.64 bitrate=1185.4kbits/s    frame=  989 fps= 83 q=3.1 size=    5701kB time=00:00:39.60 bitrate=1179.4kbits/s    frame= 1038 fps= 83 q=2.0 size=    5925kB time=00:00:41.53 bitrate=1168.6kbits/s    frame= 1090 fps= 84 q=2.0 size=    6122kB time=00:00:43.65 bitrate=1148.9kbits/s    frame= 1144 fps= 85 q=2.0 size=    6360kB time=00:00:45.79 bitrate=1137.8kbits/s    frame= 1197 fps= 86 q=2.0 size=    6558kB time=00:00:47.91 bitrate=1121.3kbits/s    frame= 1239 fps= 86 q=2.0 size=    6747kB time=00:00:49.60 bitrate=1114.3kbits/s    frame= 1287 fps= 86 q=2.0 size=    6941kB time=00:00:51.54 bitrate=1103.2kbits/s    frame= 1339 fps= 86 q=2.0 size=    7138kB time=00:00:53.63 bitrate=1090.4kbits/s    frame= 1391 fps= 87 q=2.0 size=    7335kB time=00:00:55.69 bitrate=1078.9kbits/s    frame= 1444 fps= 88 q=2.0 size=    7572kB time=00:00:57.81 bitrate=1073.1kbits/s    frame= 1497 fps= 88 q=2.0 size=    7770kB time=00:00:59.90 bitrate=1062.6kbits/s    frame= 1545 fps= 88 q=2.0 size=    7964kB time=00:01:01.80 bitrate=1055.5kbits/s    frame= 1596 fps= 89 q=2.0 size=    8160kB time=00:01:03.84 bitrate=1047.0kbits/s    frame= 1647 fps= 89 q=2.0 size=    8398kB time=00:01:05.93 bitrate=1043.4kbits/s    frame= 1699 fps= 89 q=2.0 size=    8565kB time=00:01:08.02 bitrate=1031.5kbits/s    frame= 1752 fps= 90 q=2.0 size=    8715kB time=00:01:10.11 bitrate=1018.2kbits/s    frame= 1807 fps= 90 q=2.0 size=    8834kB time=00:01:12.28 bitrate=1001.2kbits/s    frame= 1859 fps= 91 q=2.0 size=    8936kB time=00:01:14.39 bitrate= 983.9kbits/s    frame= 1912 fps= 91 q=2.0 size=    9114kB time=00:01:16.54 bitrate= 975.5kbits/s    frame= 1964 fps= 91 q=2.0 size=    9282kB time=00:01:18.60 bitrate= 967.3kbits/s    frame= 2017 fps= 91 q=1.6 size=    9480kB time=00:01:20.69 bitrate= 962.4kbits/s    frame= 2066 fps= 92 q=2.0 size=    9666kB time=00:01:22.65 bitrate= 958.0kbits/s    frame= 2116 fps= 92 q=2.0 size=    9862kB time=00:01:24.69 bitrate= 953.9kbits/s    frame= 2149 fps= 90 q=1.6 size=   10004kB time=00:01:26.02 bitrate= 952.7kbits/s    frame= 2192 fps= 90 q=2.0 size=   10156kB time=00:01:27.69 bitrate= 948.7kbits/s    frame= 2236 fps= 90 q=2.0 size=   10362kB time=00:01:29.44 bitrate= 949.0kbits/s    frame= 2281 fps= 90 q=1.6 size=   10520kB time=00:01:31.24 bitrate= 944.5kbits/s    frame= 2323 fps= 90 q=2.0 size=   10645kB time=00:01:32.94 bitrate= 938.2kbits/s    frame= 2366 fps= 90 q=2.0 size=   10802kB time=00:01:34.66 bitrate= 934.7kbits/s    frame= 2409 fps= 90 q=2.0 size=   10928kB time=00:01:36.44 bitrate= 928.2kbits/s    frame= 2460 fps= 90 q=2.0 size=   11091kB time=00:01:38.40 bitrate= 923.3kbits/s    frame= 2473 fps= 89 q=1.6 size=   11162kB time=00:01:38.97 bitrate= 923.8kbits/s    frame= 2527 fps= 89 q=2.0 size=   11328kB time=00:01:41.12 bitrate= 917.7kbits/s    frame= 2578 fps= 89 q=2.0 size=   11491kB time=00:01:43.15 bitrate= 912.5kbits/s    frame= 2630 fps= 89 q=2.0 size=   11686kB time=00:01:45.24 bitrate= 909.5kbits/s    frame= 2665 fps= 89 q=1.6 size=   11805kB time=00:01:46.65 bitrate= 906.7kbits/s    frame= 2718 fps= 89 q=2.0 size=   11970kB time=00:01:48.74 bitrate= 901.7kbits/s    frame= 2771 fps= 90 q=2.0 size=   12134kB time=00:01:50.86 bitrate= 896.6kbits/s    frame= 2824 fps= 90 q=2.0 size=   12330kB time=00:01:53.00 bitrate= 893.8kbits/s    frame= 2878 fps= 90 q=2.0 size=   12462kB time=00:01:55.14 bitrate= 886.6kbits/s    frame= 2930 fps= 90 q=2.0 size=   12580kB time=00:01:57.23 bitrate= 879.0kbits/s    frame= 2979 fps= 91 q=2.0 size=   12680kB time=00:01:59.22 bitrate= 871.3kbits/s    frame= 3027 fps= 91 q=2.0 size=   12780kB time=00:02:01.10 bitrate= 864.5kbits/s    frame= 3073 fps= 91 q=1.6 size=   12948kB time=00:02:02.95 bitrate= 862.6kbits/s    frame= 3116 fps= 91 q=2.0 size=   13062kB time=00:02:04.68 bitrate= 858.2kbits/s    frame= 3165 fps= 91 q=2.0 size=   13208kB time=00:02:06.64 bitrate= 854.3kbits/s    frame= 3217 fps= 91 q=1.6 size=   13451kB time=00:02:08.73 bitrate= 856.0kbits/s    frame= 3271 fps= 91 q=2.0 size=   13644kB time=00:02:10.87 bitrate= 854.0kbits/s    frame= 3325 fps= 91 q=2.0 size=   13744kB time=00:02:13.04 bitrate= 846.3kbits/s    frame= 3377 fps= 91 q=2.0 size=   13927kB time=00:02:15.10 bitrate= 844.4kbits/s    frame= 3424 fps= 89 q=2.0 size=   14114kB time=00:02:16.96 bitrate= 844.1kbits/s    frame= 3426 fps= 88 q=1.6 size=   14152kB time=00:02:17.11 bitrate= 845.5kbits/s    frame= 3474 fps= 88 q=1.6 size=   14418kB time=00:02:18.99 bitrate= 849.8kbits/s    frame= 3517 fps= 88 q=2.0 size=   15007kB time=00:02:20.72 bitrate= 873.6kbits/s    frame= 3559 fps= 88 q=2.0 size=   15609kB time=00:02:22.39 bitrate= 898.0kbits/s    frame= 3600 fps= 88 q=2.0 size=   16127kB time=00:02:24.01 bitrate= 917.4kbits/s    frame= 3643 fps= 88 q=2.0 size=   16773kB time=00:02:25.79 bitrate= 942.5kbits/s    frame= 3685 fps= 88 q=2.0 size=   17321kB time=00:02:27.43 bitrate= 962.4kbits/s    frame= 3721 fps= 88 q=2.0 size=   17823kB time=00:02:28.89 bitrate= 980.6kbits/s    frame= 3753 fps= 87 q=2.0 size=   18154kB time=00:02:30.17 bitrate= 990.3kbits/s    frame= 3797 fps= 87 q=2.0 size=   18299kB time=00:02:31.95 bitrate= 986.5kbits/s    frame= 3841 fps= 87 q=2.0 size=   18505kB time=00:02:33.67 bitrate= 986.4kbits/s    frame= 3883 fps= 87 q=2.0 size=   18745kB time=00:02:35.37 bitrate= 988.3kbits/s    frame= 3926 fps= 87 q=2.0 size=   18924kB time=00:02:37.10 bitrate= 986.8kbits/s    frame= 3968 fps= 87 q=2.0 size=   19116kB time=00:02:38.74 bitrate= 986.4kbits/s    frame= 4012 fps= 87 q=2.0 size=   19286kB time=00:02:40.55 bitrate= 984.1kbits/s    frame= 4055 fps= 87 q=2.0 size=   19472kB time=00:02:42.24 bitrate= 983.2kbits/s    frame= 4098 fps= 87 q=1.6 size=   19657kB time=00:02:43.97 bitrate= 982.1kbits/s    frame= 4143 fps= 87 q=2.0 size=   19885kB time=00:02:45.74 bitrate= 982.8kbits/s    frame= 4192 fps= 87 q=2.0 size=   20159kB time=00:02:47.70 bitrate= 984.7kbits/s    frame= 4236 fps= 87 q=2.0 size=   20453kB time=00:02:49.48 bitrate= 988.6kbits/s    frame= 4285 fps= 87 q=2.0 size=   20602kB time=00:02:51.41 bitrate= 984.6kbits/s    frame= 4337 fps= 88 q=2.0 size=   20750kB time=00:02:53.55 bitrate= 979.4kbits/s    frame= 4388 fps= 88 q=2.0 size=   20953kB time=00:02:55.57 bitrate= 977.6kbits/s    frame= 4433 fps= 88 q=2.0 size=   21076kB time=00:02:57.37 bitrate= 973.4kbits/s    frame= 4485 fps= 88 q=2.0 size=   21261kB time=00:02:59.46 bitrate= 970.5kbits/s    frame= 4532 fps= 88 q=2.0 size=   21480kB time=00:03:01.31 bitrate= 970.5kbits/s    frame= 4578 fps= 88 q=1.6 size=   21811kB time=00:03:03.17 bitrate= 975.4kbits/s    frame= 4625 fps= 88 q=2.0 size=   22163kB time=00:03:05.00 bitrate= 981.4kbits/s    frame= 4665 fps= 88 q=2.0 size=   22779kB time=00:03:06.64 bitrate= 999.8kbits/s    frame= 4708 fps= 88 q=2.0 size=   23305kB time=00:03:08.37 bitrate=1013.5kbits/s    frame= 4752 fps= 88 q=2.0 size=   23795kB time=00:03:10.09 bitrate=1025.4kbits/s    frame= 4794 fps= 88 q=1.6 size=   24469kB time=00:03:11.79 bitrate=1045.1kbits/s    frame= 4839 fps= 88 q=2.0 size=   25061kB time=00:03:13.64 bitrate=1060.2kbits/s    frame= 4887 fps= 88 q=2.0 size=   25592kB time=00:03:15.55 bitrate=1072.1kbits/s    frame= 4935 fps= 88 q=2.0 size=   26189kB time=00:03:17.46 bitrate=1086.5kbits/s    frame= 4982 fps= 88 q=2.0 size=   26632kB time=00:03:19.31 bitrate=1094.6kbits/s    frame= 5040 fps= 88 q=2.0 size=   26816kB time=00:03:21.66 bitrate=1089.3kbits/s    frame= 5077 fps= 88 q=2.0 size=   26926kB time=00:03:23.12 bitrate=1085.9kbits/s    frame= 5138 fps= 88 q=2.0 size=   27114kB time=00:03:25.55 bitrate=1080.6kbits/s    frame= 5198 fps= 89 q=2.0 size=   27259kB time=00:03:27.93 bitrate=1073.9kbits/s    frame= 5247 fps= 89 q=2.0 Lsize=   27335kB time=00:03:29.89 bitrate=1066.8kbits/s    
video:23847kB audio:3280kB subtitle:0 global headers:0kB muxing overhead 0.766253%
